<svg xmlns="http://www.w3.org/2000/svg" viewBox="0 0 100 100"><path style="text-indent:0;text-align:start;line-height:normal;text-transform:none;block-progression:tb;marker:none;-inkscape-font-specification:Sans" d="M16 14C9.958 14 5 18.958 5 25v38c0 6.042 4.958 11 11 11h2v9a3 3 0 0 0 4.813 2.406L38.03 74H84c6.042 0 11-4.958 11-11V25c0-6.042-4.958-11-11-11H16zm0 6h68c2.822 0 5 2.178 5 5v38c0 2.822-2.178 5-5 5H37a3 3 0 0 0-1.813.594L24 77v-6a3 3 0 0 0-3-3h-5c-2.822 0-5-2.178-5-5V25c0-2.822 2.178-5 5-5zm52.625 4a3 3 0 0 0-1.281.469c-3.057 2.014-8.319 2.864-13.813 4.156-5.494 1.292-11.518 3.309-15.062 8.969-2.512 4.01-2.447 8.557-2.469 14.687-2.615 1.699-5.15 3.88-7.406 6.938a3 3 0 1 0 4.812 3.562c1.78-2.412 3.735-4.085 5.875-5.468C43.251 58.809 47.153 60.01 51 60c11.653 0 21-9.592 21-22.688V27a3 3 0 0 0-3.375-3zM66 31.719v5.593C66 47.71 59.502 54 51 54c-1.176.005-2.57-.203-4.094-.594 4.85-2.227 10.269-4.884 14.657-10.781a3 3 0 0 0-2.313-4.844 3 3 0 0 0-2.5 1.25c-3.666 4.927-8 6.929-13 9.219-.534.245-1.078.526-1.625.781.114-3.898.398-6.64 1.406-8.25 2.245-3.584 6.278-5.114 11.375-6.312 3.542-.833 7.433-1.429 11.094-2.75z" font-weight="400" color="#000" overflow="visible" font-family="Sans"/></svg>