<svg xmlns:dc="http://purl.org/dc/elements/1.1/" xmlns:cc="http://creativecommons.org/ns#" xmlns:rdf="http://www.w3.org/1999/02/22-rdf-syntax-ns#" xmlns:svg="http://www.w3.org/2000/svg" xmlns="http://www.w3.org/2000/svg" xmlns:sodipodi="http://sodipodi.sourceforge.net/DTD/sodipodi-0.dtd" xmlns:inkscape="http://www.inkscape.org/namespaces/inkscape" viewBox="0 0 100 100" version="1.1" x="0px" y="0px"><g transform="translate(0,-952.36223)"><path style="font-size:medium;font-style:normal;font-variant:normal;font-weight:normal;font-stretch:normal;text-indent:0;text-align:start;text-decoration:none;line-height:normal;letter-spacing:normal;word-spacing:normal;text-transform:none;direction:ltr;block-progression:tb;writing-mode:lr-tb;text-anchor:start;baseline-shift:baseline;opacity:1;color:#000000;fill:#000000;fill-opacity:1;stroke:none;stroke-width:6;marker:none;visibility:visible;display:inline;overflow:visible;enable-background:accumulate;font-family:Sans;-inkscape-font-specification:Sans" d="M 16 14 C 9.957893 14 5 18.95789 5 25 L 5 63 C 5 69.0421 9.957893 74 16 74 L 18 74 L 18 83 A 3.0003001 3.0003001 0 0 0 22.8125 85.40625 L 38.03125 74 L 84 74 C 90.042107 74 95 69.0421 95 63 L 95 25 C 95 18.95789 90.042107 14 84 14 L 16 14 z M 16 20 L 84 20 C 86.821877 20 89 22.17812 89 25 L 89 63 C 89 65.8219 86.821877 68 84 68 L 37 68 A 3.0003001 3.0003001 0 0 0 35.1875 68.59375 L 24 77 L 24 71 A 3.0003001 3.0003001 0 0 0 21 68 L 16 68 C 13.178123 68 11 65.8219 11 63 L 11 25 C 11 22.17812 13.178123 20 16 20 z M 68.625 24 A 3.0003001 3.0003001 0 0 0 67.34375 24.46875 C 64.287098 26.48272 59.025015 27.33341 53.53125 28.625 C 48.037485 29.91659 42.013461 31.9338 38.46875 37.59375 C 35.957366 41.603777 36.022001 46.151015 36 52.28125 C 33.384544 53.979894 30.84945 56.161505 28.59375 59.21875 A 3.0003001 3.0003001 0 1 0 33.40625 62.78125 C 35.185769 60.36945 37.141025 58.69635 39.28125 57.3125 C 43.251003 58.809182 47.153204 60.010213 51 60 C 62.65345 60 72 50.408 72 37.3125 L 72 27 A 3.0003001 3.0003001 0 0 0 68.625 24 z M 66 31.71875 L 66 37.3125 C 66 47.7102 59.501512 54 51 54 C 49.824147 54.00503 48.430752 53.797136 46.90625 53.40625 C 51.755087 51.179342 57.174684 48.522212 61.5625 42.625 A 3.0003001 3.0003001 0 0 0 59.25 37.78125 A 3.0003001 3.0003001 0 0 0 56.75 39.03125 C 53.084152 43.95813 48.750264 45.95989 43.75 48.25 C 43.216078 48.494534 42.671852 48.775933 42.125 49.03125 C 42.238985 45.13336 42.522806 42.391472 43.53125 40.78125 C 45.776296 37.19651 49.809473 35.66701 54.90625 34.46875 C 58.448024 33.63608 62.339441 33.04012 66 31.71875 z " transform="translate(0,952.36223)"/></g></svg>
