<svg xmlns="http://www.w3.org/2000/svg" xmlns:xlink="http://www.w3.org/1999/xlink" xml:space="preserve" style="shape-rendering:geometricPrecision;text-rendering:geometricPrecision;image-rendering:optimizeQuality;" viewBox="0 0 8.4666 8.4666" x="0px" y="0px" fill-rule="evenodd" clip-rule="evenodd"><g><path class="fil0" d="M2.354 2.354l0.0001 -0.0001c0.1508,-0.1508 0.3975,-0.1508 0.5483,0l1.3309 1.3309 1.3309 -1.3309c0.1508,-0.1508 0.3975,-0.1508 0.5483,0l0.0001 0.0001c0.1508,0.1508 0.1508,0.3976 0,0.5484l-1.3308 1.3308 1.3309 1.331c0.1508,0.1508 0.1508,0.3975 0,0.5483l-0.0001 0.0001c-0.1508,0.1508 -0.3976,0.1508 -0.5484,0l-1.3309 -1.3309 -1.3309 1.3309c-0.1508,0.1508 -0.3976,0.1508 -0.5484,0l-0.0001 -0.0001c-0.1508,-0.1508 -0.1508,-0.3975 0,-0.5483l1.3309 -1.331 -1.3308 -1.3308c-0.1508,-0.1508 -0.1508,-0.3976 0,-0.5484z"></path></g></svg>
