<svg class="susty" xmlns="http://www.w3.org/2000/svg" viewBox="0 0 16 16" x="0px" y="0px"><g><path d="M7.799 14.781c-1.261 0-2.647-.281-4.15-.845-.271-.102-.484-.315-.585-.585-1.619-4.318-.612-7.167.517-8.797 2.006-2.894 6.168-4.554 11.419-4.554.553 0 1 .448 1 1 0 6.402-1.438 10.644-4.271 12.607-1.129.784-2.443 1.174-3.93 1.174zm-3.017-2.563c2.423.822 4.374.737 5.808-.254 2.093-1.45 3.261-4.877 3.396-9.941-4.095.185-7.257 1.5-8.761 3.67-1.183 1.707-1.331 3.901-.443 6.525zM.999 16c-.467 0-.885-.328-.979-.804-.108-.54.241-1.065.779-1.176.074-.017 4.65-1.072 8.333-7.517.273-.479.884-.646 1.364-.372.479.274.646.885.372 1.364-4.178 7.312-9.45 8.44-9.672 8.484l-.197.021z"/></g></svg>
